inDegrees=no
num_controls=7
num_derivatives=13
num_iterations=132
num_multipliers=7
num_parameters=0
num_slacks=7
num_states=26
objective=5.756207
objective_accelerations=0.688393
objective_balance=0.011026
objective_effort=0.490806
objective_height=4.518941
objective_ligament=0.047041
solver_duration=1110.185917
status=Solve_Succeeded
success=true
DataType=double
version=3
OpenSimVersion=4.4-2022-07-23-0e9fedc
endheader
time	/jointset/ground_pelvis/pelvis_tilt/value	/jointset/ground_pelvis/pelvis_tx/value	/jointset/ground_pelvis/pelvis_ty/value	/jointset/hip_r/hip_flexion_r/value	/jointset/hip_r/hip_adduction_r/value	/jointset/hip_r/hip_rotation_r/value	/jointset/back/lumbar_extension/value	/jointset/patellofemoral_r/patellar_flexion_r/value	/jointset/knee_r/knee_flexion_r/value	/jointset/knee_r/knee_adduction_r/value	/jointset/knee_r/knee_rotation_r/value	/jointset/ankle_r/ankle_angle_r/value	/jointset/subtalar_r/subtalar_angle_r/value	/jointset/ground_pelvis/pelvis_tilt/speed	/jointset/ground_pelvis/pelvis_tx/speed	/jointset/ground_pelvis/pelvis_ty/speed	/jointset/hip_r/hip_flexion_r/speed	/jointset/hip_r/hip_adduction_r/speed	/jointset/hip_r/hip_rotation_r/speed	/jointset/back/lumbar_extension/speed	/jointset/patellofemoral_r/patellar_flexion_r/speed	/jointset/knee_r/knee_flexion_r/speed	/jointset/knee_r/knee_adduction_r/speed	/jointset/knee_r/knee_rotation_r/speed	/jointset/ankle_r/ankle_angle_r/speed	/jointset/subtalar_r/subtalar_angle_r/speed	/forceset/tau_hip_flexion_r	/forceset/tau_hip_adduction_r	/forceset/tau_hip_rotation_r	/forceset/tau_knee_flexion_r	/forceset/tau_ankle_angle_r	/forceset/tau_subtalar_angle_r	/forceset/tau_lumbar_extension	lambda_cid13_p0	lambda_cid14_p0	lambda_cid14_p1	lambda_cid14_p2	lambda_cid14_p3	lambda_cid14_p4	lambda_cid14_p5	/jointset/ground_pelvis/pelvis_tilt/accel	/jointset/ground_pelvis/pelvis_tx/accel	/jointset/ground_pelvis/pelvis_ty/accel	/jointset/hip_r/hip_flexion_r/accel	/jointset/hip_r/hip_adduction_r/accel	/jointset/hip_r/hip_rotation_r/accel	/jointset/back/lumbar_extension/accel	/jointset/patellofemoral_r/patellar_flexion_r/accel	/jointset/knee_r/knee_flexion_r/accel	/jointset/knee_r/knee_adduction_r/accel	/jointset/knee_r/knee_rotation_r/accel	/jointset/ankle_r/ankle_angle_r/accel	/jointset/subtalar_r/subtalar_angle_r/accel	gamma_cid13_p0	gamma_cid14_p0	gamma_cid14_p1	gamma_cid14_p2	gamma_cid14_p3	gamma_cid14_p4	gamma_cid14_p5
1	-0.2486195536467065	-0.02230514406450907	0.6015343966157175	1.529658090974268	-0.2412376328662658	-0.06508878435918226	-0.7853923477823392	1.596822152891998	1.596822152892038	-0.1745327002558867	0.1745324009845131	0.4362219698580888	0.1696945536059204	0.06929733866545337	0.004871800887779297	0.01534822719606609	-0.09985484033398717	-0.001214301809055346	-0.00239663416471781	-0.0001515646995037616	-0.01586093441254566	-0.01586093441254312	0.003177356754707699	-0.0002459638645119275	0.01479224149560747	0.005234060173376344	-0.3455988432764763	0.01552355181594837	0.007299668938228174	-0.4874195790030191	-0.005491120446861464	0.00850937115988031	0.3658908393558375	-0.04004826163915802	-53.80631664256995	-8.897497624628285	5.463649225361192	8.27463578885974	-779.7505357922199	76.35094760719402	1.138730776968631	0.1068906763650212	2.014123661661459	-5.776680358787641	0.2503809808742034	-0.8073265902490996	-0.02495065900035815	-5.414608922613568	-5.414608922613376	0.5825183104776995	-0.03260568326612417	-0.9312019435618383	0.02244328785783414	1.619312232236971e-09	2.506759409558684e-09	8.617699720129632e-09	1.110770238094552e-08	-2.593676501098934e-09	-4.914251751251801e-09	1.905617331624068e-08
1.01	-0.2478701464023653	-0.02225102297005631	0.601788462474249	1.528371369861286	-0.2412372603996964	-0.06515003196692136	-0.7853943430411586	1.596393260573896	1.596393260573918	-0.1744687416221995	0.1745280437939152	0.4363233790033936	0.1697479553941339	0.08059093334311256	0.00596115385832509	0.03546356965096128	-0.1574992864753138	0.001281797045474953	-0.009804595078869436	-0.0002362049300633116	-0.06991106889796013	-0.06991106889795698	0.009672038366081548	-0.0006146994199721956	0.005493843626422328	0.005433711273020596	-0.3451349942821085	0.0154469761079186	0.007395327141643785	-0.4877759668944211	-0.004957945176036295	0.008488361087228872	0.365727716242255	-0.04004931903605296	-53.62848514297239	-8.882205599247152	5.468887651723838	8.065531335449641	-779.6882226296841	76.42462486614382	1.125699010595289	0.1112669429838229	2.010030799706334	-5.759810824892163	0.2481800270772875	-0.7002847381723208	0.001471606786755357	-5.399247889031506	-5.399247889031576	0.6915925346800611	-0.03737954183152836	-0.9285202636287712	0.01684892581792521	6.075028482057166e-09	8.546202885849391e-09	3.741590284852108e-08	4.190713971932716e-08	-5.187813051085452e-09	-1.24677534169838e-08	8.329832499499234e-08
1.02	-0.2470075981717645	-0.02218574647878149	0.6022436400097899	1.526507907470271	-0.2412121358067141	-0.06528390996309848	-0.7853968462391034	1.595424060475435	1.595424060475442	-0.1743381062826999	0.1745203248376924	0.4363319318587572	0.1698029782743028	0.09192553591800749	0.007102880252191367	0.05557056259799349	-0.2152030959401118	0.003736123473453912	-0.01692271184000053	-0.0002531526857605475	-0.123922490484422	-0.1239224904844194	0.01651269790597804	-0.0009183169812467921	-0.003779016444042632	0.005558278564666642	-0.3446711452877222	0.01537040039971249	0.007490985344983383	-0.4881323547858296	-0.004424769905264664	0.008467351014221601	0.3655645931286825	-0.04005872428511562	-53.45776453509065	-8.865344162152661	5.470660687914866	7.863329210349894	-779.7351266708617	76.52414994678873	1.146932356415747	0.117365361029137	2.012453760088862	-5.788553023481936	0.2420264955638761	-0.7493577596451396	-0.01141216402654501	-5.406866342823056	-5.406866342823085	0.6517138961821555	-0.01958208442885526	-0.9260943838177784	0.00742652625810475	1.361246008517695e-08	1.829381220195361e-08	7.540554522641172e-08	9.252994197651736e-08	-9.14321535036334e-09	-2.183540068296161e-08	1.820841260641603e-07
1.03	-0.2460317432831959	-0.02210875396526301	0.6028998285215708	1.524067340522693	-0.2411626611415405	-0.06548757854155322	-0.7853980201798233	1.593914777755784	1.593914777755785	-0.1741373604490834	0.1745099002900179	0.4362477285436849	0.1698588210059793	0.1032285115014052	0.008308221162411474	0.0756642899473577	-0.2728987040266062	0.006154599796523835	-0.02377276417460585	0.0001450635066045615	-0.1779444638735291	-0.1779444638735267	0.02368570528427573	-0.001158452182675195	-0.01307217365233385	0.005595457507932966	-0.3451308246182278	0.01547953387401288	0.007623019015779192	-0.4878683579748913	-0.004885744988923207	0.008487086122271278	0.3663004691222134	-0.04007808509650871	-53.63098048497187	-8.876356293699022	5.460142260853535	7.864827528636429	-780.1927690943323	76.53601841225283	1.119446661769695	0.1240056159816846	2.007398449529271	-5.758320665451382	0.2411447866098176	-0.6470826016249974	0.08444339158473625	-5.401428683388106	-5.40142868338815	0.7574742201615274	-0.02496848966852161	-0.9325050771820511	-0.0003230740365416864	2.118133776333043e-08	2.807925994499472e-08	1.134889778007259e-07	1.43355023467573e-07	-1.311250811647074e-08	-3.122155963873785e-08	2.812224133515981e-07
1.04	-0.2449433653383082	-0.02201933061064993	0.6037568675522786	1.521050166301396	-0.2410891243959535	-0.06575859836963026	-0.7853914109843922	1.591864962132957	1.591864962132955	-0.1738634085293635	0.174497326539978	0.4360702779189413	0.169914598196608	0.1144301471835245	0.009589048471113035	0.09574066638344329	-0.3305245506818285	0.008548539556877444	-0.03039296175949025	0.00130347492765947	-0.2320290711199894	-0.2320290711199879	0.03115391512289859	-0.001348157450849459	-0.02242847837452368	0.005545170355299695	-0.3455905039487454	0.01558866734821834	0.007755052686476993	-0.4876043611639638	-0.005346720072606791	0.008506821230132619	0.3670363451157325	-0.04010552275351936	-53.81134866868288	-8.885486613202026	5.445743525822907	7.871561863046969	-780.7621307646052	76.57532950990988	1.12666437616007	0.132462640725386	2.008983577433138	-5.774600737227447	0.2371191830205378	-0.7033868097010799	0.1406268817139864	-5.419393114293738	-5.419393114293874	0.7107543882471847	-0.009496097777813784	-0.9387238865976136	-0.01006669292200667	2.808703919910256e-08	3.844878219746459e-08	1.507341207673723e-07	1.925134612466006e-07	-1.950202416699058e-08	-3.855448322136882e-08	3.750380374920932e-07
1.05	-0.2437436845184719	-0.02191662783568299	0.6048144548047857	1.517457475168862	-0.2409918159609784	-0.0660946571447128	-0.7853686396755547	1.589274228327044	1.589274228327058	-0.1735133055068267	0.1744831602430885	0.4357990024977829	0.169969374864551	0.125466769562292	0.01097357939641564	0.1157609896290051	-0.3879617034258621	0.01090577614100059	-0.03677892666474569	0.003457391979330165	-0.2861043556156781	-0.286104355615679	0.03891380178076703	-0.001474832534685184	-0.031831253394345	0.005392141980188162	-0.3461792343118684	0.01566990791651742	0.007943249139740713	-0.4869353468088347	-0.005831917772055071	0.008540691579589366	0.3680040792613124	-0.04013380162652697	-53.97917627990331	-8.879445794196867	5.421117618574344	7.737280515091681	-781.1473654246307	76.58484258463234	1.08628406443548	0.1447539906838297	1.996178286693438	-5.720467268696519	0.2339505112843459	-0.6002032547506349	0.2837648863023521	-5.399603014237214	-5.399603014237533	0.8156632748212669	-0.01264618948989858	-0.9417504931883445	-0.02056588214563106	3.497201637730027e-08	4.883655677835411e-08	1.879530671837792e-07	2.416198164096273e-07	-2.596717219514829e-08	-4.582324319858901e-08	4.686873284092466e-07
1.06	-0.2424348128957123	-0.02179941861701314	0.6060717696074632	1.513291973563738	-0.2408711502371342	-0.0664933759535931	-0.7853181310422634	1.586143140296767	1.586143140296791	-0.1730841921236442	0.174468048600211	0.4354335600897201	0.1700220922542739	0.1362683077690733	0.01249033721169389	0.135686176417564	-0.4450866451981096	0.01321999733217618	-0.0429249685225165	0.006850939807338527	-0.3400999159926065	-0.3400999159926095	0.04695598724922032	-0.001537226650662907	-0.041261875754731	0.005133314711484663	-0.346767964675012	0.01575114848481176	0.008131445592836628	-0.4862663324537204	-0.006317115471499892	0.008574561929043047	0.3689718134068747	-0.04016994894082072	-54.15424412336071	-8.871243469411306	5.392229736049265	7.607025527410959	-781.6473549903409	76.62328255872771	1.079647541762848	0.1589080187204671	1.989956286032549	-5.712158542870167	0.2285161044309403	-0.6554022002042759	0.3885530369812675	-5.403448290541712	-5.403448290541797	0.7672141503641697	0.00336009579403697	-0.9442933547106803	-0.03122647164062525	4.178001957519164e-08	5.88823011246699e-08	2.218151030882181e-07	2.894568713097323e-07	-3.226382651505279e-08	-5.296735366662704e-08	5.566909706117702e-07
